<svg viewBox="0 0 64 64" xmlns="http://www.w3.org/2000/svg">
  <defs></defs>
  <path d="M0 0h64v64H0z" style="fill: rgb(69, 204, 73);"></path>
  <g transform="matrix(2.971838, 0, 0, 2.971838, -176.640854, -63.098812)" style="">
    <path fill="#FFF" d="M 63.206 25 L 77.206 25 L 77.206 39 L 63.206 39 L 63.206 25 Z"></path>
    <path d="M 63.206 25 L 63.206 39 L 77.206 39 L 77.206 25 L 63.206 25 Z M 76.206 38 L 64.206 38 L 64.206 26 L 76.206 26 L 76.206 38 Z" style="fill: rgb(69, 204, 73); fill-opacity: 0.5;"></path>
    <path d="M 74.306 29.3 L 73.906 29 C 73.806 28.9 73.606 28.9 73.506 29 L 68.806 33.8 L 66.806 31.8 C 66.706 31.7 66.506 31.7 66.406 31.8 L 66.106 32.2 C 66.006 32.3 66.006 32.5 66.106 32.6 L 68.206 34.7 L 68.606 35 C 68.706 35.1 68.906 35.1 69.006 35 L 69.406 34.6 L 74.306 29.7 C 74.406 29.6 74.406 29.4 74.306 29.3 L 74.306 29.3 Z" style="fill: rgb(69, 204, 73);"></path>
  </g>
</svg>
